<?xml version="1.0" encoding="UTF-8" standalone="no"?>
<!-- Created with Inkscape (http://www.inkscape.org/) -->

<svg
   xmlns:dc="http://purl.org/dc/elements/1.1/"
   xmlns:cc="http://creativecommons.org/ns#"
   xmlns:rdf="http://www.w3.org/1999/02/22-rdf-syntax-ns#"
   xmlns:svg="http://www.w3.org/2000/svg"
   xmlns="http://www.w3.org/2000/svg"
   xmlns:sodipodi="http://sodipodi.sourceforge.net/DTD/sodipodi-0.dtd"
   xmlns:inkscape="http://www.inkscape.org/namespaces/inkscape"
   width="640"
   height="640"
   viewBox="0 0 169.33333 169.33334"
   version="1.1"
   id="svg8"
   inkscape:version="0.92.4 (f8dce91, 2019-08-02)"
   sodipodi:docname="jsoncomma.svg">
  <defs
     id="defs2" />
  <sodipodi:namedview
     id="base"
     pagecolor="#ffffff"
     bordercolor="#666666"
     borderopacity="1.0"
     inkscape:pageopacity="0.0"
     inkscape:pageshadow="2"
     inkscape:zoom="0.6546875"
     inkscape:cx="213.8816"
     inkscape:cy="281.2627"
     inkscape:document-units="mm"
     inkscape:current-layer="layer1"
     showgrid="false"
     units="px"
     inkscape:window-width="1850"
     inkscape:window-height="1016"
     inkscape:window-x="70"
     inkscape:window-y="27"
     inkscape:window-maximized="1"
     inkscape:snap-global="false" />
  <metadata
     id="metadata5">
    <rdf:RDF>
      <cc:Work
         rdf:about="">
        <dc:format>image/svg+xml</dc:format>
        <dc:type
           rdf:resource="http://purl.org/dc/dcmitype/StillImage" />
        <dc:title></dc:title>
      </cc:Work>
    </rdf:RDF>
  </metadata>
  <g
     inkscape:label="Layer 1"
     inkscape:groupmode="layer"
     id="layer1"
     transform="translate(0,-127.66665)">
    <g
       id="g908"
       transform="translate(7.4765291,5.1440317)">
      <path
         d="m 47.757913,247.66175 v 7.27595 h -3.1327 q -12.581327,0 -16.876158,-3.73903 -4.244303,-3.73904 -4.244303,-14.90559 v -12.07606 q 0,-7.62963 -2.72848,-10.56022 -2.728482,-2.9306 -9.903375,-2.9306 H 7.7907252 v -7.22542 h 3.0821718 q 7.225421,0 9.903375,-2.88006 2.72848,-2.93059 2.72848,-10.45918 v -12.12658 q 0,-11.16655 4.244303,-14.85505 4.294831,-3.73904 16.876158,-3.73904 h 3.1327 v 7.22542 h -3.435865 q -7.124365,0 -9.297044,2.22321 -2.17268,2.2232 -2.17268,9.34757 v 12.5308 q 0,7.93281 -2.324261,11.52025 -2.273734,3.58745 -7.831749,4.85064 5.608543,1.36424 7.882276,4.95168 2.273734,3.58746 2.273734,11.46973 v 12.5308 q 0,7.12437 2.17268,9.34757 2.172679,2.22321 9.297044,2.22321 z"
         style="font-style:normal;font-weight:normal;font-size:92.33203888px;line-height:1.25;font-family:sans-serif;letter-spacing:0px;word-spacing:0px;fill:#1e1e24;fill-opacity:1;stroke:none;stroke-width:2.58700395"
         id="path895"
         inkscape:connector-curvature="0" />
      <path
         d="m 72.870039,225.22757 h 10.661286 v 8.69072 l -8.286497,16.16877 h -6.518037 l 4.143248,-16.16877 z"
         style="font-style:normal;font-weight:normal;font-size:92.33203888px;line-height:1.25;font-family:sans-serif;letter-spacing:0px;word-spacing:0px;fill:#5d5d65;fill-opacity:1;stroke:none;stroke-width:2.58700395"
         id="path897"
         inkscape:connector-curvature="0" />
      <path
         d="m 106.62236,247.66175 h 3.53692 q 7.07384,0 9.19599,-2.17268 2.17268,-2.17268 2.17268,-9.3981 v -12.5308 q 0,-7.88227 2.27373,-11.46973 2.27373,-3.58744 7.88227,-4.95168 -5.60854,-1.26319 -7.88227,-4.85064 -2.27373,-3.58744 -2.27373,-11.52025 v -12.5308 q 0,-7.17489 -2.17268,-9.34757 -2.12215,-2.22321 -9.19599,-2.22321 h -3.53692 v -7.22542 h 3.18322 q 12.58133,0 16.77511,3.73904 4.2443,3.6885 4.2443,14.85505 v 12.12658 q 0,7.52859 2.72848,10.45918 2.72848,2.88006 9.90338,2.88006 h 3.1327 v 7.22542 h -3.1327 q -7.1749,0 -9.90338,2.9306 -2.72848,2.93059 -2.72848,10.56022 v 12.07606 q 0,11.16655 -4.2443,14.90559 -4.19378,3.73903 -16.77511,3.73903 h -3.18322 z"
         style="font-style:normal;font-weight:normal;font-size:92.33203888px;line-height:1.25;font-family:sans-serif;letter-spacing:0px;word-spacing:0px;fill:#1e1e24;fill-opacity:1;stroke:none;stroke-width:2.58700395"
         id="path899"
         inkscape:connector-curvature="0" />
    </g>
  </g>
</svg>
